HIERARCHY
ROOT mixamorig_Hips
{
	OFFSET -0.000041 0.112915 0.215553
	CHANNELS 6 Xposition Yposition Zposition Xrotation Yrotation Zrotation
	JOINT mixamorig_Spine
	{
		OFFSET 0.000000 -0.008525 -0.108039
		CHANNELS 3 Xrotation Yrotation Zrotation
		JOINT mixamorig_Spine1
		{
			OFFSET 0.000000 -0.009946 -0.126046
			CHANNELS 3 Xrotation Yrotation Zrotation
			JOINT mixamorig_Spine2
			{
				OFFSET 0.000000 -0.011367 -0.144052
				CHANNELS 3 Xrotation Yrotation Zrotation
				JOINT mixamorig_Neck
				{
					OFFSET 0.000000 -0.012788 -0.162059
					CHANNELS 3 Xrotation Yrotation Zrotation
					JOINT mixamorig_Head
					{
						OFFSET 0.000000 -0.019313 -0.077391
						CHANNELS 3 Xrotation Yrotation Zrotation
						JOINT mixamorig_HeadTop_End
						{
							OFFSET 0.000000 -0.142419 -0.570699
							CHANNELS 3 Xrotation Yrotation Zrotation
							End Site
							{
								OFFSET 0.000000 -0.016881 -0.067645
							}
						}
					}
				}
				JOINT mixamorig_LeftShoulder
				{
					OFFSET 0.059117 -0.013497 -0.154003
					CHANNELS 3 Xrotation Yrotation Zrotation
					JOINT mixamorig_LeftArm
					{
						OFFSET 0.105067 -0.001420 0.016848
						CHANNELS 3 Xrotation Yrotation Zrotation
						JOINT mixamorig_LeftForeArm
						{
							OFFSET 0.311627 -0.003307 -0.007856
							CHANNELS 3 Xrotation Yrotation Zrotation
							JOINT mixamorig_LeftHand
							{
								OFFSET 0.267365 -0.006620 -0.009061
								CHANNELS 3 Xrotation Yrotation Zrotation
								End Site
								{
									OFFSET 0.069659 -0.001725 -0.002361
								}
							}
						}
					}
				}
				JOINT mixamorig_RightShoulder
				{
					OFFSET -0.059117 -0.012078 -0.154003
					CHANNELS 3 Xrotation Yrotation Zrotation
					JOINT mixamorig_RightArm
					{
						OFFSET -0.105067 0.001420 0.016849
						CHANNELS 3 Xrotation Yrotation Zrotation
						JOINT mixamorig_RightForeArm
						{
							OFFSET -0.311626 -0.007328 -0.007857
							CHANNELS 3 Xrotation Yrotation Zrotation
							JOINT mixamorig_RightHand
							{
								OFFSET -0.267364 -0.007689 -0.009061
								CHANNELS 3 Xrotation Yrotation Zrotation
								End Site
								{
									OFFSET -0.069651 -0.002003 -0.002361
								}
							}
						}
					}
				}
			}
		}
	}
	JOINT mixamorig_LeftUpLeg
	{
		OFFSET 0.086025 -0.002322 0.060046
		CHANNELS 3 Xrotation Yrotation Zrotation
		JOINT mixamorig_LeftLeg
		{
			OFFSET 0.005130 0.001862 0.314250
			CHANNELS 3 Xrotation Yrotation Zrotation
			JOINT mixamorig_LeftFoot
			{
				OFFSET 0.029099 0.003055 0.305414
				CHANNELS 3 Xrotation Yrotation Zrotation
				JOINT mixamorig_LeftToeBase
				{
					OFFSET 0.032406 0.158115 0.089037
					CHANNELS 3 Xrotation Yrotation Zrotation
					JOINT mixamorig_LeftToe_End
					{
						OFFSET 0.020098 0.068010 -0.003802
						CHANNELS 3 Xrotation Yrotation Zrotation
						End Site
						{
							OFFSET 0.019731 0.066766 -0.003732
						}
					}
				}
			}
		}
	}
	JOINT mixamorig_RightUpLeg
	{
		OFFSET -0.086024 0.004521 0.060047
		CHANNELS 3 Xrotation Yrotation Zrotation
		JOINT mixamorig_RightLeg
		{
			OFFSET -0.005129 0.001774 0.314251
			CHANNELS 3 Xrotation Yrotation Zrotation
			JOINT mixamorig_RightFoot
			{
				OFFSET -0.029099 0.004797 0.305414
				CHANNELS 3 Xrotation Yrotation Zrotation
				JOINT mixamorig_RightToeBase
				{
					OFFSET -0.032405 0.159308 0.089036
					CHANNELS 3 Xrotation Yrotation Zrotation
					JOINT mixamorig_RightToe_End
					{
						OFFSET -0.020098 0.066652 -0.003802
						CHANNELS 3 Xrotation Yrotation Zrotation
						End Site
						{
							OFFSET -0.020098 0.066652 -0.003802
						}
					}
				}
			}
		}
	}
}
MOTION
Frames: 15
Frame Time: 0.033333
0.000802 0.761560 0.001701 95.198528 -0.911285 1.304972 4.977925 -0.611269 -1.667228 1.913851 0.282883 -0.432640 1.909587 0.289729 -0.446983 -12.298874 3.311487 1.414955 -10.371934 -4.044078 -0.383532 -0.000003 -0.000000 0.000000 0.483483 -7.155238 -13.928795 -73.600268 -0.765717 -42.119188 1.517301 2.654166 128.759735 -0.000000 -0.000001 -0.000001 0.553463 13.884585 10.255304 -78.267746 -6.667693 35.832637 1.499611 -2.673998 -129.597594 -0.000000 0.000000 0.000000 -7.724205 6.630611 -12.262567 7.010871 1.839717 -6.289635 -2.566323 -6.903212 -0.216497 0.003250 -0.001982 0.000031 -0.000000 0.000000 0.000000 -9.608216 -4.254283 9.453056 8.694743 -0.945883 4.793194 -4.198184 5.678004 0.109061 2.524480 0.000034 -0.000027 0.000000 0.000001 0.000001 
0.000365 0.760701 -0.001765 95.501761 -1.110872 1.509248 5.360964 -0.577800 -2.077252 2.111462 0.274691 -0.518782 2.106559 0.284892 -0.533380 -13.045129 3.481083 1.547038 -10.994851 -4.047816 -0.148997 -0.000001 -0.000000 0.000000 0.503804 -7.016754 -13.833451 -73.006758 -0.663084 -42.011332 1.520596 2.650047 128.603993 -0.000000 -0.000001 0.000003 0.478057 13.833008 10.738815 -78.869560 -6.072733 36.213342 1.495949 -2.678385 -129.764578 0.000002 -0.000001 -0.000001 -9.710309 7.284052 -11.972456 9.892177 1.695889 -6.523945 -3.698298 -6.941846 -0.259620 -0.105414 -0.000021 -0.000001 -0.000001 -0.000001 -0.000001 -11.083932 -4.354023 9.421733 10.400024 -0.431509 4.543012 -4.746273 5.311906 0.101587 2.379648 0.000033 0.000013 -0.000001 0.000001 0.000007 
0.000860 0.758277 -0.006754 96.274460 -1.363896 2.137327 5.622013 -0.383402 -2.451889 2.251085 0.312880 -0.596731 2.245553 0.326277 -0.610647 -13.785561 3.663409 1.540337 -11.935999 -3.964023 -0.619587 -0.000001 0.000000 -0.000000 0.448039 -7.202463 -14.241839 -73.211213 -0.673505 -42.277741 1.519423 2.651511 128.659399 -0.000000 0.000003 0.000002 0.548425 13.911744 10.278802 -79.956202 -5.927844 36.043622 1.497532 -2.676491 -129.691878 -0.000000 -0.000000 -0.000000 -13.293419 8.525796 -11.740881 15.041647 0.956766 -6.826531 -5.900491 -6.742277 -0.315016 -0.072476 -0.000025 0.000003 -0.000000 0.000000 0.000000 -14.189196 -4.670138 9.214039 13.965664 0.333717 3.940166 -5.991097 4.859521 0.094324 1.943854 0.000010 -0.000002 -0.000001 0.000001 0.000005 
0.000842 0.753411 -0.013743 97.543209 -1.622722 3.141555 5.910090 -0.247169 -2.785424 2.426498 0.361394 -0.670238 2.420083 0.378446 -0.684364 -14.600315 3.616434 1.445034 -12.839984 -3.823829 -1.171229 -0.000002 0.000000 0.000000 0.343801 -7.554526 -14.965424 -74.494278 -1.053477 -42.947628 1.513708 2.658694 128.930913 0.000001 0.000002 0.000000 0.678763 14.166559 9.413697 -80.583439 -5.739029 36.070301 1.499769 -2.673766 -129.588824 -0.000001 -0.000002 -0.000001 -18.026869 10.909035 -12.305511 21.560626 -1.080073 -6.076322 -8.661844 -5.866248 -0.334916 -0.021983 -0.000034 0.000019 0.000000 -0.000000 0.000006 -19.018602 -5.374760 9.186754 19.547498 1.801611 2.557959 -7.992238 3.858986 0.039120 1.406908 0.000015 -0.000001 0.000000 0.000001 0.000001 
0.000158 0.744305 -0.021988 99.557684 -1.692547 4.174100 5.890551 -0.325693 -3.214348 2.499073 0.340131 -0.761203 2.491840 0.361519 -0.775488 -15.510519 3.469316 1.354271 -13.608766 -3.566162 -1.466317 -0.000001 -0.000000 -0.000000 0.289931 -8.095839 -15.028590 -76.197304 -0.785921 -43.793496 1.507485 2.666430 129.222808 0.000000 0.000001 -0.000002 0.736685 14.594412 8.971335 -81.395542 -4.860014 36.549076 1.498767 -2.675046 -129.637988 0.000001 0.000000 0.000001 -24.296595 13.144020 -11.891761 29.127109 -2.641660 -5.864352 -11.685268 -5.430319 -0.359131 -0.000015 -0.000064 0.000010 -0.000001 -0.000001 -0.000008 -25.854599 -6.182126 8.710702 27.206243 3.157307 1.383612 -10.776666 2.834696 -0.076105 1.148990 0.000018 -0.000006 -0.000000 0.000001 0.000001 
-0.000692 0.729330 -0.031089 101.752702 -1.477755 4.405041 5.908601 -0.627497 -3.500469 2.606663 0.260722 -0.822137 2.598983 0.286401 -0.838381 -16.432595 3.418938 1.387502 -14.464452 -3.086752 -1.285841 -0.000002 0.000000 0.000000 0.313064 -8.591605 -14.446589 -77.384643 -0.401144 -44.202232 1.503647 2.671087 129.401895 -0.000001 -0.000001 0.000002 0.700264 14.634618 9.180954 -82.672316 -3.772761 37.794548 1.494394 -2.680300 -129.837334 -0.000000 0.000001 -0.000000 -31.879587 14.975956 -10.689923 38.026675 -3.970897 -5.220449 -15.100607 -5.044721 -0.373498 -0.000217 -0.000003 0.000027 -0.000000 0.000001 -0.000001 -33.858016 -7.818355 8.303350 36.845749 4.779393 0.239664 -14.457723 1.715960 -0.268530 1.052487 0.000037 -0.000006 0.000000 0.000001 -0.000000 
-0.002285 0.708838 -0.040197 103.828076 -1.649340 3.712442 6.074429 -0.591064 -3.040263 2.800346 0.264160 -0.722351 2.793662 0.288975 -0.739363 -17.205475 3.555646 1.420050 -15.599536 -2.875979 -1.397220 0.000001 -0.000000 0.000000 0.329434 -8.680349 -14.238897 -78.050136 -0.304761 -45.308545 1.495249 2.681356 129.793935 0.000001 -0.000002 0.000001 0.694266 15.317130 9.077944 -84.094478 -2.918732 38.258246 1.496052 -2.678330 -129.763513 0.000000 0.000000 -0.000000 -40.177037 17.294789 -9.313377 47.762669 -5.415700 -2.961245 -18.618534 -4.157531 -0.264090 -0.000061 -0.000064 0.000034 -0.000000 -0.000000 -0.000003 -41.818444 -9.219696 7.817614 46.867409 6.005023 -0.078553 -18.409645 1.040098 -0.459860 0.860904 0.000021 0.000021 -0.000000 0.000001 0.000001 
-0.003656 0.682397 -0.048023 105.681775 -2.069251 2.962474 6.146784 -0.333502 -2.576025 3.025763 0.319304 -0.619565 3.020092 0.343013 -0.635216 -17.825301 3.548889 1.363409 -17.004837 -2.848163 -1.671964 0.000002 0.000000 0.000000 0.352274 -9.120092 -13.747836 -79.673077 -0.132553 -46.282936 1.486602 2.691756 130.192544 -0.000000 -0.000000 -0.000003 0.639314 15.844748 9.285527 -84.799080 -1.777139 38.894263 1.497567 -2.676483 -129.692288 0.000000 -0.000002 -0.000001 -48.836641 19.623393 -7.523648 58.226550 -6.377083 -0.385146 -22.383097 -3.243907 -0.075813 -0.000041 0.000000 0.000024 -0.000000 -0.000001 0.000000 -49.732738 -10.644141 7.337629 57.354266 7.036027 -0.622466 -22.591399 0.545545 -0.667116 -0.069298 -0.000002 0.000007 0.000000 0.000001 0.000003 
-0.004114 0.650533 -0.054660 107.045368 -2.243973 2.714433 6.476257 -0.225423 -2.258670 3.325583 0.366159 -0.554393 3.320253 0.389396 -0.571127 -18.483646 3.500148 1.319696 -18.395187 -2.940294 -1.894991 -0.000001 0.000000 0.000000 0.362986 -9.386848 -13.491496 -81.531319 -0.200072 -47.322126 1.478964 2.700740 130.540802 0.000000 0.000002 -0.000001 0.607589 16.142660 9.401722 -85.284221 -0.612197 39.293337 1.499419 -2.674181 -129.603727 0.000000 -0.000000 0.000001 -57.138982 21.469552 -5.494126 68.954462 -6.800707 1.585208 -26.350289 -2.655278 0.097161 -0.000055 -0.000050 0.000010 -0.000000 -0.000001 -0.000001 -57.478282 -12.584819 6.863743 68.206085 7.872430 -2.334759 -26.721812 -0.250663 -1.005027 0.013117 0.000026 -0.000016 0.000000 0.000000 0.000007 
-0.004250 0.615409 -0.061856 108.296474 -2.379759 2.822822 6.964814 -0.180521 -2.317367 3.663474 0.396294 -0.569403 3.657825 0.422861 -0.587503 -19.237195 3.243136 1.236574 -19.786501 -2.621590 -1.938047 -0.000002 0.000000 -0.000000 0.401770 -9.686812 -12.996500 -82.997139 -0.047159 -47.853210 1.474073 2.706483 130.763330 0.000003 0.000004 0.000000 0.598802 16.116185 9.456051 -86.327608 0.582015 39.838885 1.498633 -2.675140 -129.640160 0.000000 0.000001 0.000001 -65.487669 22.668571 -2.935630 79.210004 -6.576181 2.581467 -29.919469 -2.684506 0.130628 -0.000072 0.000005 0.000016 -0.000000 -0.000000 0.000002 -65.368769 -13.674268 5.700872 78.452714 7.929188 -3.282494 -30.247909 -0.450826 -1.224787 -0.001490 0.000006 -0.000012 0.000000 0.000001 0.000005 
-0.003731 0.578782 -0.069632 109.660613 -2.650653 2.768580 7.565077 0.077266 -2.261170 4.072005 0.498638 -0.561709 4.066103 0.527272 -0.579710 -20.159911 3.093518 1.188079 -21.306398 -2.482942 -2.110547 -0.000003 0.000000 -0.000000 0.377299 -10.076635 -12.976106 -83.847013 -0.501902 -48.463945 1.470628 2.710500 130.920001 -0.000002 0.000000 0.000000 0.577410 16.189155 9.558710 -87.193608 1.367258 39.971374 1.499508 -2.674085 -129.600954 0.000000 -0.000001 -0.000001 -74.149019 23.117269 0.051935 88.685874 -6.075147 3.092281 -32.753448 -2.910002 0.104845 -0.000022 -0.000007 0.000029 -0.000001 -0.000000 0.000002 -73.289712 -14.622537 4.556403 87.838077 7.705354 -3.958460 -33.036962 -0.419802 -1.324513 0.008078 0.000013 -0.000019 0.000001 -0.000000 0.000001 
-0.002599 0.540839 -0.077363 110.864236 -3.018553 2.853516 8.233997 0.480710 -2.289940 4.492776 0.635576 -0.569949 4.486544 0.666879 -0.584995 -20.825645 3.019446 1.115108 -23.379872 -2.435513 -2.516271 0.000001 0.000000 0.000000 0.357703 -10.489039 -12.906016 -84.944563 -0.792440 -48.962658 1.465292 2.716701 131.160696 0.000002 -0.000001 0.000000 0.635644 16.278837 9.219914 -87.796597 1.636065 39.418473 1.503148 -2.669511 -129.428178 0.000000 0.000006 0.000001 -82.793053 23.651275 2.918285 97.692524 -5.588755 3.910590 -35.010211 -2.767519 0.181795 -0.000021 -0.000007 0.000025 -0.000000 0.000001 0.000004 -81.112239 -15.219897 3.307663 96.550885 7.243735 -4.351871 -35.164368 -0.144102 -1.317268 -0.164015 -0.000006 -0.000000 -0.000000 0.000001 0.000007 
-0.000817 0.501607 -0.083887 111.442692 -3.461654 2.987018 9.274861 1.001666 -2.324249 4.944044 0.826459 -0.582908 4.937277 0.859113 -0.594886 -21.628224 2.880557 1.020419 -24.376214 -2.773046 -3.043756 0.000001 0.000000 0.000000 0.340978 -10.859039 -12.840859 -86.282413 -0.666188 -49.028754 1.463031 2.719305 131.262439 -0.000000 0.000001 0.000004 0.727310 16.282744 8.715614 -88.260340 1.397132 38.265103 1.508056 -2.663655 -129.201907 0.000001 0.000002 -0.000001 -90.982976 24.135097 5.758021 106.444345 -5.029183 4.957521 -36.908720 -2.321139 0.314696 -0.000295 -0.000014 0.000026 0.000000 0.000000 0.000000 -88.331367 -16.322504 2.322048 104.943159 6.750290 -5.385075 -36.838919 -0.295845 -1.443504 -0.615240 0.000002 -0.000006 0.000001 0.000001 0.000001 
0.000644 0.462165 -0.088593 111.558948 -4.188085 3.221305 10.326581 1.731394 -2.581069 5.367663 1.024644 -0.628724 5.360469 1.061692 -0.630469 -22.525954 2.738191 0.859571 -25.476143 -2.973333 -3.792550 -0.000000 -0.000000 0.000000 0.298105 -11.423234 -12.872163 -86.542492 -0.843344 -48.546563 1.466288 2.715544 131.115180 0.000001 0.000001 0.000000 0.779578 16.038360 8.466842 -88.875330 1.264053 37.242122 1.508494 -2.663035 -129.179723 0.000000 0.000002 -0.000002 -99.135667 25.345039 8.765253 114.775742 -4.532322 5.942797 -38.123435 -1.637355 1.547184 -0.000027 -0.000030 0.000015 0.000000 -0.000000 0.000000 -94.905608 -17.643294 1.696620 112.856568 6.244413 -6.663282 -38.092812 -0.808232 -1.739536 -0.827626 0.000005 -0.000007 -0.000000 0.000001 0.000005 
0.000922 0.423438 -0.092816 111.056280 -4.884226 3.282615 11.647318 2.391545 -2.759730 5.761601 1.208983 -0.657872 5.754136 1.247784 -0.652032 -23.106636 2.677152 0.821467 -27.075206 -3.128831 -4.037651 -0.000004 -0.000000 0.000000 0.339448 -11.404165 -12.582590 -86.624475 -0.585223 -48.054383 1.469280 2.711972 130.978726 -0.000000 -0.000000 0.000002 0.889556 15.798757 7.886863 -89.613632 0.636872 35.834055 1.509520 -2.661770 -129.132745 0.000000 0.000001 0.000001 -106.992550 25.976010 12.343429 122.310288 -4.091338 6.197834 -38.355720 -1.495932 3.211309 -0.000020 -0.000006 0.000027 0.000000 -0.000000 -0.000001 -101.016353 -18.675158 0.754492 120.208625 5.630839 -6.999752 -38.804484 -0.849254 -2.189050 -1.115104 -0.000009 0.000013 0.000000 0.000001 -0.000000 
